# xmcd
#
# Track frame offsets: 
#        150
#        17002
#        31310
#        45632
#        69637
#        87662
#        101695
#        119395
#        136210
#
# Disc length: 2019 seconds
#
# Revision: 0
# Processed by: cddbd v1.4PL0 Copyright (c) Steve Scherf et al.
# Submitted via: ExactAudioCopy v0.90b4
#
DISCID=7707e109
DTITLE=Poco - Cowboys and Englishmen
DYEAR=1982
DGENRE=Rock
TTITLE0=Sea Of Heartbreak
TTITLE1=No Relief In Sight
TTITLE2=There Goes My Heart
TTITLE3=Ashes/Feudin'
TTITLE4=Cajun Moon
TTITLE5=Ribbon Of Darkness
TTITLE6=If You Could Read My Mind
TTITLE7=While You're On Your Wa
TTITLE8=The Price Of Love
EXTD=
EXTT0=
EXTT1=
EXTT2=
EXTT3=
EXTT4=
EXTT5=
EXTT6=
EXTT7=
EXTT8=
PLAYORDER=
